# xmcd
#
# Track frame offsets:
#	150
#	16789
#	35126
#	37878
#	55683
#	76585
#	93909
#	104704
#	106043
#	124235
#	143925
#	145192
#	159424
#	182238
#	206743
#	207662
#	233154
#	234121
#	249651
#
# Disc length: 3545 seconds
#
# Revision: 4
# Processed by: cddbd v1.4b41PL1 Copyright (c) Steve Scherf et al.
# Submitted via: audiograbber 1.80
#
DISCID=fd0dd713
DTITLE=Bloodhound Gang - Hooray for Boobies
DYEAR=1900
DGENRE=
TTITLE0=I Hope You Die
TTITLE1=The Inevitable Return of the Great White Dope
TTITLE2=Mama's Boy
TTITLE3=Three Point One Four
TTITLE4=Mope
TTITLE5=Yummy Down On This
TTITLE6=The Ballad of Chasey Lain
TTITLE7=RSVP
TTITLE8=Magna Cum Nada
TTITLE9=The Bad Touch
TTITLE10=That Cough Came With a Prize
TTITLE11=Take the Long Way Home
TTITLE12=Hell Yeah
TTITLE13=Right Turn Kyle
TTITLE14=This is Stupid
TTITLE15=A Lap Dance is so Much Better When the Stripper is Crying
TTITLE16=10 Coolest Things About New Jersey
TTITLE17=Along Comes Mary
TTITLE18=Hidden Track
EXTD=
EXTT0=
EXTT1=
EXTT2=
EXTT3=
EXTT4=
EXTT5=
EXTT6=
EXTT7=
EXTT8=
EXTT9=
EXTT10=
EXTT11=
EXTT12=
EXTT13=
EXTT14=
EXTT15=
EXTT16=
EXTT17=
EXTT18=
PLAYORDER=
